# xmcd
#
# Track frame offsets:
# 150
# 10007
# 24074
# 41479
# 53423
# 65365
# 77650
# 97142
#
# Disc length: 1421 seconds
#
#
# Revision: 0
# Processed by: cddbd v1.4PL0 Copyright (c) Steve Scherf et al.
# Submitted via: FreeRIP 2.52 
#
DISCID=4f058b08
DTITLE=Bobby Maynard - Gospel Pickin'
DYEAR=1996
DGENRE=Bluegrass
TTITLE0=I'll Fly Away
TTITLE1=Amazing Grace
TTITLE2=What a Friend We Have In Jesus
TTITLE3=When The Saints Go Marching In
TTITLE4=Gospel Pickin'
TTITLE5=Battle Hymn of The Republic
TTITLE6=How Great Thou Art
TTITLE7=Uncloudy Day
EXTD=
EXTT0=
EXTT1=
EXTT2=
EXTT3=
EXTT4=
EXTT5=
EXTT6=
EXTT7=
PLAYORDER=
